<?xml version="1.0" standalone="no"?>
<!DOCTYPE svg PUBLIC "-//W3C//DTD SVG 20010904//EN"
 "http://www.w3.org/TR/2001/REC-SVG-20010904/DTD/svg10.dtd">
<svg version="1.0" xmlns="http://www.w3.org/2000/svg"
 width="908.000000pt" height="908.000000pt" viewBox="0 0 908.000000 908.000000"
 preserveAspectRatio="xMidYMid meet">
<metadata>
Created by potrace 1.14, written by Peter Selinger 2001-2017
</metadata>
<g transform="translate(0.000000,908.000000) scale(0.100000,-0.100000)"
fill="#000000" stroke="none">
<path d="M2905 6653 c-16 -3 -33 -10 -37 -16 -6 -9 -8 -8 -8 2 0 11 -3 11 -15
1 -8 -7 -22 -10 -30 -6 -8 3 -15 1 -15 -4 0 -6 -3 -9 -7 -8 -5 1 -22 -5 -39
-15 -17 -9 -34 -13 -38 -10 -3 4 -6 2 -6 -3 0 -5 -17 -18 -37 -29 -21 -11 -47
-28 -57 -37 -10 -10 -22 -15 -26 -13 -4 2 -13 -7 -20 -20 -7 -13 -16 -23 -19
-21 -3 2 -34 -25 -68 -60 -35 -35 -60 -64 -57 -64 2 0 -7 -12 -21 -27 -15 -16
-43 -53 -62 -83 -20 -30 -46 -65 -56 -77 -11 -13 -17 -23 -13 -23 5 0 4 -6 -2
-12 -21 -27 -82 -147 -82 -162 0 -8 -7 -19 -16 -24 -9 -5 -15 -12 -15 -15 1
-4 1 -8 0 -9 0 -2 -3 -14 -5 -28 -2 -13 -9 -27 -15 -31 -6 -3 -10 -8 -9 -10 1
-2 -3 -17 -9 -32 -6 -16 -11 -35 -11 -43 0 -8 -4 -14 -10 -14 -5 0 -7 -7 -4
-15 4 -8 1 -15 -5 -15 -6 0 -10 -3 -9 -7 2 -9 -29 -118 -42 -148 -13 -32 -23
-78 -21 -99 2 -10 -1 -16 -6 -13 -4 3 -8 -5 -9 -16 -1 -21 -11 -72 -14 -72 -3
0 -9 -40 -12 -72 -1 -18 -6 -33 -10 -33 -4 0 -5 -7 -2 -15 3 -8 2 -20 -2 -27
-5 -7 -9 -26 -10 -43 -1 -16 -5 -41 -7 -55 -3 -14 -8 -61 -12 -104 -8 -89 -11
-112 -20 -126 -3 -6 -1 -10 5 -10 6 0 8 -5 3 -12 -10 -17 -12 -61 -14 -349 -1
-135 1 -252 6 -259 5 -7 4 -11 -1 -7 -5 3 -9 -34 -9 -86 0 -68 -3 -92 -13 -92
-7 0 -16 -4 -20 -10 -4 -5 -14 -11 -22 -13 -8 -2 -16 -8 -18 -13 -2 -5 -10 -9
-18 -9 -8 0 -14 -5 -14 -12 0 -6 -3 -9 -6 -5 -4 3 -26 -7 -50 -24 -24 -16 -44
-26 -44 -22 0 4 -5 0 -11 -9 -5 -10 -15 -18 -20 -18 -6 0 -23 -9 -39 -20 -15
-11 -30 -17 -34 -13 -3 3 -6 1 -6 -6 0 -7 -13 -17 -30 -22 -16 -6 -30 -14 -30
-18 0 -5 -18 -16 -40 -26 -22 -10 -40 -21 -40 -25 0 -4 -18 -15 -40 -26 -22
-10 -40 -22 -40 -26 0 -5 -7 -8 -15 -8 -8 0 -15 -4 -15 -10 0 -5 -7 -10 -15
-10 -8 0 -15 -4 -15 -10 0 -5 -7 -10 -15 -10 -7 0 -19 -8 -24 -17 -6 -10 -11
-13 -11 -8 0 6 -4 5 -8 -2 -4 -6 -14 -13 -21 -15 -14 -3 -28 -13 -70 -50 -11
-9 -22 -14 -25 -10 -3 3 -6 0 -6 -6 0 -7 -7 -12 -15 -12 -8 0 -15 -4 -15 -10
0 -5 -5 -10 -10 -10 -6 0 -16 -5 -23 -10 -45 -38 -91 -70 -101 -70 -6 0 -19
-8 -27 -17 -16 -19 -52 -47 -90 -73 -12 -8 -37 -27 -54 -42 -18 -16 -38 -28
-45 -28 -8 0 -11 -3 -7 -6 3 -3 -15 -22 -41 -41 -26 -19 -53 -42 -59 -51 -7
-9 -13 -13 -13 -9 0 3 -22 -15 -50 -41 -27 -26 -67 -64 -89 -84 -22 -21 -38
-38 -37 -38 2 0 -15 -19 -38 -43 -66 -70 -106 -120 -106 -134 0 -7 -4 -13 -10
-13 -5 0 -10 -7 -10 -15 0 -8 -4 -15 -9 -15 -5 0 -12 -11 -15 -25 -3 -13 -11
-37 -18 -52 -15 -38 -16 -46 -4 -62 8 -11 8 -13 -2 -7 -16 10 -13 -25 3 -36 6
-5 6 -8 -2 -8 -7 0 -3 -15 10 -39 12 -22 25 -37 29 -35 5 3 8 -2 8 -10 0 -9
11 -18 25 -22 14 -3 25 -10 25 -15 0 -5 7 -9 15 -9 8 0 15 -6 15 -12 0 -9 4
-8 10 2 6 9 10 10 10 3 0 -7 21 -15 50 -19 27 -4 48 -9 46 -13 -2 -3 17 -6 42
-5 26 0 53 -4 59 -9 9 -6 13 -5 13 4 0 10 3 10 11 2 8 -8 20 -8 35 -3 16 7 24
6 24 -1 0 -8 5 -7 15 1 8 7 15 8 15 3 0 -5 9 -9 20 -9 11 0 20 3 20 6 0 9 32
6 47 -3 6 -4 14 -3 17 2 4 5 29 9 56 8 28 -1 50 1 50 4 0 3 6 6 13 6 58 2 143
17 149 26 5 8 8 8 8 1 0 -6 7 -11 15 -11 8 0 15 4 15 9 0 5 9 4 19 -2 14 -7
22 -7 26 1 4 6 13 8 21 5 8 -3 14 0 14 6 0 6 2 9 6 6 3 -3 22 -2 42 3 32 8
100 18 140 21 6 1 12 6 12 11 0 5 8 3 17 -4 9 -8 14 -9 10 -2 -5 7 9 13 43 18
28 4 48 11 45 15 -6 10 15 8 32 -3 6 -4 14 -3 18 3 4 6 10 8 15 5 5 -3 12 -1
15 5 4 6 15 8 25 5 10 -3 21 -2 24 4 6 9 102 27 119 23 5 -2 6 2 3 7 -3 5 18
12 46 16 29 4 64 14 77 22 13 8 20 10 17 4 -4 -6 -3 -11 2 -11 6 0 10 -40 10
-92 0 -51 1 -99 1 -105 1 -10 51 -13 215 -13 194 0 214 2 221 17 3 10 1 19 -4
21 -6 2 -11 8 -11 13 0 6 3 8 8 5 9 -6 9 75 -1 91 -4 6 -3 15 3 18 8 5 8 11 0
20 -8 10 -8 15 0 20 8 5 8 10 0 20 -8 10 -8 15 0 20 8 5 8 10 0 20 -8 10 -8
15 1 20 8 6 8 9 -1 15 -10 6 -9 13 3 31 9 12 22 24 29 25 33 7 59 15 148 44
52 17 103 33 113 35 34 8 92 29 106 40 12 8 13 7 6 -5 -7 -12 -6 -13 6 -4 8 6
39 19 69 29 30 10 77 26 103 37 26 10 52 16 57 13 5 -3 12 0 17 7 4 7 15 14
23 15 25 3 175 57 178 64 2 4 12 5 22 2 11 -3 20 0 20 6 0 6 3 10 8 9 4 -1 20
4 35 10 16 7 35 12 43 12 8 0 14 4 14 9 0 5 8 8 18 7 9 -2 26 3 37 10 12 8 30
15 42 17 12 1 28 9 37 16 9 7 16 10 16 5 0 -4 5 -3 12 4 7 7 22 12 35 12 13 0
23 4 23 10 0 5 7 7 15 4 8 -4 15 -2 15 3 0 5 12 10 27 11 14 1 23 -1 20 -5 -4
-3 -2 -12 4 -20 6 -7 7 -13 2 -13 -5 0 -10 -7 -10 -15 0 -8 4 -15 8 -15 5 0 4
-11 -1 -24 -5 -15 -5 -27 3 -35 8 -8 8 -11 0 -11 -13 0 -12 -32 2 -42 6 -5 5
-8 -4 -8 -11 0 -11 -3 -1 -15 8 -10 9 -15 1 -15 -7 0 -8 -8 -1 -24 5 -13 6
-27 2 -30 -10 -10 -9 -46 1 -46 5 0 4 -7 -3 -15 -10 -12 -10 -15 0 -15 10 0
10 -3 0 -15 -10 -12 -10 -15 0 -15 10 0 10 -3 1 -14 -8 -10 -9 -16 -1 -21 6
-3 7 -12 3 -18 -11 -18 -11 -47 0 -47 5 0 4 -7 -3 -15 -10 -12 -10 -15 0 -15
10 0 10 -3 0 -15 -10 -12 -10 -15 0 -15 10 0 10 -3 1 -14 -8 -10 -9 -16 -1
-21 6 -3 7 -12 3 -18 -11 -18 -11 -47 0 -47 5 0 4 -7 -3 -15 -10 -12 -10 -15
0 -15 10 0 10 -3 0 -15 -10 -12 -10 -15 0 -15 10 0 10 -3 1 -14 -9 -10 -9 -16
-1 -21 8 -5 8 -11 1 -19 -6 -7 -8 -16 -4 -19 3 -4 102 -7 220 -7 196 0 213 1
214 18 0 9 1 223 1 475 l1 459 23 15 c13 8 28 12 34 8 5 -3 10 -1 10 4 0 6 3
10 8 10 16 -4 72 24 72 34 0 7 5 5 10 -3 7 -11 10 -11 10 -2 0 7 5 10 10 7 6
-3 10 -2 10 3 0 11 37 25 58 23 6 -1 12 3 12 9 0 5 3 9 8 8 4 -1 20 4 35 10
16 7 34 12 41 12 8 0 19 7 26 15 7 8 16 12 21 9 5 -3 9 0 9 5 0 6 10 11 23 11
12 0 31 6 42 14 11 8 39 19 63 26 23 7 42 17 42 22 0 4 3 7 8 6 8 -1 49 15
109 43 23 11 44 19 45 18 2 -1 13 3 25 9 19 10 25 9 43 -10 11 -12 20 -26 20
-30 0 -5 5 -6 10 -3 6 3 10 2 10 -2 0 -5 33 -43 73 -85 188 -198 279 -295 288
-309 5 -7 9 -10 9 -4 0 5 8 -2 17 -15 10 -14 17 -28 15 -32 -1 -5 2 -7 6 -5 4
1 42 -33 84 -75 41 -43 80 -78 86 -78 6 0 14 -9 17 -20 3 -11 11 -20 16 -20 5
0 17 -8 27 -17 10 -10 35 -31 56 -48 21 -16 44 -35 50 -41 6 -5 40 -30 76 -54
36 -24 71 -50 78 -57 8 -7 18 -11 23 -8 5 4 9 2 9 -3 0 -15 263 -152 293 -152
9 0 17 -4 17 -10 0 -5 7 -7 15 -4 8 4 15 1 15 -6 0 -6 4 -9 9 -5 5 3 12 1 16
-5 3 -5 19 -10 36 -10 16 0 29 -4 29 -8 0 -5 13 -9 29 -10 17 0 39 -6 50 -12
16 -8 21 -8 21 2 0 9 3 9 12 0 7 -7 29 -12 49 -12 21 0 41 -5 44 -10 5 -7 11
-8 19 -1 7 6 17 6 26 1 8 -5 18 -6 22 -4 5 3 40 7 78 9 38 2 78 9 88 14 11 6
22 8 25 5 3 -3 12 -2 19 2 7 5 18 9 23 9 21 2 95 38 95 46 0 5 7 9 15 9 16 0
109 89 140 135 27 40 68 128 66 142 0 2 6 21 14 43 8 22 11 40 8 40 -4 0 -2 5
4 11 8 8 8 20 3 35 -5 13 -6 26 -1 28 10 7 8 157 -2 174 -5 6 -4 12 0 12 5 0
8 12 7 28 -1 15 -3 27 -4 27 -1 0 -3 7 -5 15 -20 105 -29 137 -39 149 -9 12
-8 13 4 6 13 -8 13 -7 1 8 -7 9 -11 17 -8 17 4 0 -2 19 -12 43 -10 23 -16 48
-14 55 3 6 0 12 -7 12 -6 0 -9 4 -5 9 3 5 1 12 -4 15 -5 3 -12 18 -16 33 -3
15 -18 52 -33 83 -15 30 -27 59 -27 63 0 4 -7 12 -15 17 -8 5 -11 10 -6 10 5
0 1 10 -10 22 -13 14 -14 19 -4 14 13 -7 13 -6 0 6 -8 7 -21 24 -28 38 -14 29
-38 70 -73 125 -15 22 -26 44 -27 49 0 5 -5 12 -11 15 -5 4 -34 39 -63 78 -65
87 -126 159 -196 231 -31 32 -51 61 -48 69 3 8 10 12 15 9 5 -4 15 -1 23 6 17
16 104 61 113 58 4 -1 13 7 21 17 7 10 14 14 14 9 0 -5 6 -3 14 3 15 12 104
61 112 61 3 0 3 -4 0 -8 -3 -5 6 -15 19 -22 14 -7 25 -17 25 -22 0 -10 55 -68
63 -68 3 0 29 23 58 52 29 28 46 47 38 43 -8 -5 21 26 64 69 42 43 77 83 77
88 0 6 -3 8 -7 5 -3 -4 -13 3 -21 14 -14 20 -13 23 4 33 10 6 21 11 24 11 3 0
16 7 30 15 14 8 28 14 31 15 3 0 13 8 23 18 10 9 24 17 32 17 8 0 14 4 14 9 0
5 16 15 35 22 19 7 35 16 35 20 0 6 57 37 73 38 4 1 16 10 27 21 11 11 26 20
34 20 8 0 16 3 18 8 4 10 86 62 97 62 6 0 14 7 19 16 5 9 13 15 18 15 5 -1 30
12 55 29 25 16 53 32 62 36 9 3 14 10 11 15 -3 5 2 9 10 9 9 0 16 5 16 10 0 6
9 10 20 10 11 0 20 4 20 10 0 5 11 12 25 16 14 3 23 9 21 13 -3 4 11 15 30 26
19 10 34 22 34 27 0 4 6 8 14 8 8 0 22 7 30 16 9 8 16 13 16 9 0 -3 11 5 23
19 13 14 27 22 31 18 4 -4 12 1 17 11 6 9 17 17 24 17 8 0 15 4 15 8 0 5 25
26 56 48 31 21 70 52 87 69 18 16 33 28 35 27 1 -1 8 2 15 8 6 5 35 28 62 50
28 22 67 56 88 75 20 19 37 33 37 31 0 -2 35 31 78 73 43 42 77 78 75 80 -2 2
6 10 17 18 11 8 20 21 20 29 0 8 4 13 8 10 5 -3 15 6 22 19 7 13 18 22 23 18
6 -3 7 -1 3 5 -3 6 1 17 9 25 8 9 15 20 15 26 0 6 4 11 8 11 6 0 27 40 37 73
1 4 4 10 5 15 1 4 2 10 1 15 0 4 3 7 7 7 9 0 10 8 13 65 1 37 -37 128 -51 120
-4 -3 -10 1 -13 8 -5 15 -82 56 -112 60 -11 1 -24 5 -30 8 -5 3 -28 7 -50 8
-22 2 -44 5 -49 9 -23 14 -396 -2 -426 -18 -9 -5 -22 -5 -30 0 -9 5 -19 5 -27
-2 -7 -6 -22 -8 -33 -5 -11 3 -20 0 -20 -6 0 -7 -5 -5 -10 3 -5 8 -10 10 -10
3 0 -6 -11 -10 -25 -8 -14 1 -27 -1 -29 -4 -3 -4 -19 -8 -37 -9 -18 -2 -36 -6
-39 -10 -3 -4 -28 -7 -57 -7 -28 0 -49 -4 -46 -8 3 -5 -3 -7 -13 -6 -11 2 -25
0 -31 -4 -7 -5 -13 -6 -13 -3 0 3 -21 -1 -47 -9 -27 -8 -65 -15 -85 -17 -21
-1 -38 -5 -38 -8 0 -4 -6 -7 -12 -8 -7 0 -29 -3 -48 -7 -19 -3 -41 -7 -47 -7
-7 -1 -13 -4 -13 -8 0 -3 -8 -6 -17 -6 -10 -1 -29 -4 -43 -7 -14 -4 -42 -11
-62 -16 -21 -5 -38 -7 -38 -4 0 3 -7 0 -15 -7 -8 -7 -15 -9 -15 -5 0 4 -7 2
-15 -5 -8 -7 -15 -9 -15 -6 0 4 -8 2 -17 -3 -16 -8 -80 -22 -110 -24 -7 0 -13
-4 -13 -8 0 -4 -15 -10 -32 -13 -18 -3 -44 -8 -57 -11 -14 -2 -27 -9 -31 -15
-3 -5 -16 -8 -28 -5 -12 2 -24 0 -27 -6 -4 -5 -14 -9 -23 -9 -9 0 -30 -7 -45
-15 -15 -8 -25 -9 -21 -4 3 6 -4 5 -17 -2 -13 -7 -28 -14 -34 -15 -5 -1 -21
-4 -35 -7 -14 -3 -43 -12 -65 -20 -22 -8 -61 -21 -87 -28 -27 -7 -48 -17 -48
-22 0 -4 -4 -6 -8 -3 -4 2 -35 -4 -67 -15 -33 -11 -67 -22 -75 -24 -8 -2 -35
-11 -60 -20 -25 -10 -54 -18 -65 -19 -11 -1 -34 -10 -51 -19 -17 -9 -34 -13
-38 -10 -3 4 -6 1 -6 -5 0 -7 -10 -10 -22 -8 -13 3 -26 5 -29 5 -4 1 -26 20
-49 44 -24 23 -46 41 -50 40 -4 -1 -13 9 -20 22 -7 14 -19 25 -26 25 -7 0 -14
4 -16 9 -3 9 -90 79 -138 111 -13 8 -32 24 -43 35 -11 12 -17 14 -13 5 7 -13
6 -13 -6 0 -16 18 -75 60 -84 60 -3 0 -18 9 -32 19 -15 10 -31 19 -37 20 -5 0
-17 7 -25 14 -28 23 -44 31 -35 17 4 -7 -9 -1 -30 13 -20 14 -44 23 -53 20 -9
-4 -13 -2 -9 4 6 9 -30 25 -49 22 -4 0 -10 5 -14 11 -4 7 -19 13 -34 13 -14 0
-26 3 -26 7 0 5 -15 12 -32 15 -18 4 -39 12 -45 17 -9 7 -13 6 -13 -3 0 -9 -3
-10 -8 -4 -4 6 -14 12 -22 13 -104 24 -142 29 -232 31 -61 1 -114 -4 -153 -15
-33 -9 -68 -17 -77 -18 -10 0 -18 -4 -18 -9 0 -4 -4 -5 -10 -2 -5 3 -10 3 -10
-2 0 -4 -14 -14 -30 -22 -17 -7 -44 -24 -59 -37 -16 -13 -30 -22 -32 -20 -2 1
-12 -6 -21 -16 -10 -10 -16 -18 -13 -18 2 0 -6 -10 -18 -23 -12 -13 -26 -21
-31 -19 -5 3 -6 -1 -1 -8 4 -7 3 -15 -3 -19 -21 -13 -74 -139 -88 -211 -17
-87 -24 -209 -12 -216 4 -3 4 -13 -2 -23 -6 -12 -5 -22 2 -29 9 -9 8 -12 -2
-12 -10 0 -11 -3 -4 -8 9 -6 27 -96 36 -184 1 -10 5 -18 9 -18 7 0 24 -68 21
-82 -1 -5 2 -8 8 -8 5 0 7 -7 4 -15 -4 -8 -1 -15 6 -15 6 0 9 -3 7 -8 -3 -4 3
-24 13 -45 10 -20 13 -34 7 -30 -7 3 -5 -2 4 -13 26 -31 31 -64 9 -64 -10 0
-20 -5 -22 -10 -2 -6 -13 -12 -24 -14 -12 -3 -40 -14 -62 -25 -23 -12 -51 -21
-62 -21 -12 0 -18 -4 -15 -10 5 -9 -15 -15 -37 -11 -5 0 -8 -3 -8 -9 0 -5 -5
-10 -11 -10 -7 0 -30 -8 -53 -19 -124 -56 -126 -57 -126 -11 0 14 -5 31 -12
38 -9 9 -9 12 3 12 12 0 12 2 -1 10 -8 5 -10 10 -4 10 8 0 6 21 -6 64 -10 35
-16 67 -12 70 3 3 1 6 -4 6 -5 0 -11 12 -12 28 -4 41 -7 56 -15 69 -4 6 -8 23
-9 37 -1 14 -5 26 -9 26 -3 0 -6 6 -7 13 -3 40 -11 67 -25 97 -9 18 -14 36
-12 41 3 4 1 10 -5 14 -6 4 -8 11 -5 16 4 5 1 9 -4 9 -6 0 -11 9 -11 19 0 28
-11 52 -21 45 -5 -3 -6 2 -3 11 4 8 2 21 -4 28 -5 6 -15 29 -21 50 -7 20 -17
37 -22 37 -5 0 -9 6 -9 14 0 13 -58 134 -70 146 -3 3 -12 19 -20 35 -8 17 -17
32 -20 35 -3 3 -22 32 -44 64 -36 56 -67 94 -128 157 -14 15 -23 30 -20 33 3
3 1 6 -4 6 -9 0 -36 20 -103 77 -14 13 -32 23 -38 23 -7 0 -13 5 -13 10 0 6
-18 17 -40 26 -22 9 -40 20 -40 26 0 5 -4 7 -9 4 -4 -3 -16 1 -27 8 -10 8 -24
12 -31 9 -7 -3 -13 -1 -13 4 0 5 -8 9 -17 10 -10 0 -42 6 -72 12 -53 11 -117
12 -176 4z m5635 -215 c0 -5 4 -7 9 -4 4 3 35 -1 67 -10 61 -16 124 -56 124
-78 0 -8 7 -19 15 -26 13 -11 13 -15 3 -21 -10 -7 -10 -9 -1 -9 9 0 10 -7 4
-22 -5 -13 -15 -42 -22 -66 -7 -24 -19 -47 -27 -51 -7 -4 -14 -12 -14 -17 -1
-20 -21 -53 -29 -48 -5 3 -9 -1 -9 -9 0 -7 -18 -32 -40 -55 -21 -23 -37 -42
-35 -42 3 0 -4 -9 -15 -20 -11 -11 -24 -20 -30 -20 -5 0 -10 -4 -10 -9 0 -5
-18 -27 -40 -49 -22 -22 -40 -38 -40 -35 0 2 -16 -12 -35 -32 -20 -19 -38 -35
-42 -35 -3 0 -16 -11 -29 -25 -13 -14 -26 -25 -29 -25 -6 0 -19 -10 -49 -37
-8 -7 -16 -9 -20 -6 -3 4 -6 -1 -6 -10 0 -9 -4 -17 -8 -17 -9 0 -46 -26 -78
-57 -13 -12 -24 -19 -24 -15 0 4 -4 3 -8 -3 -12 -16 -90 -75 -100 -75 -5 0
-17 -9 -27 -20 -10 -11 -24 -20 -32 -20 -7 0 -16 -7 -19 -15 -4 -8 -10 -15
-16 -15 -5 0 -16 -7 -25 -15 -8 -8 -19 -12 -25 -9 -6 4 -8 3 -5 -3 4 -6 -5
-15 -19 -21 -13 -7 -30 -16 -37 -22 -27 -23 -114 -81 -137 -92 -14 -7 -32 -20
-41 -30 -8 -9 -27 -20 -41 -23 -15 -4 -29 -13 -32 -21 -3 -8 -10 -14 -15 -14
-19 0 -101 -57 -93 -65 4 -5 2 -5 -4 -2 -6 3 -36 -10 -68 -29 -31 -18 -61 -34
-67 -34 -5 0 -9 -4 -9 -10 0 -5 -5 -10 -10 -10 -6 0 -27 -11 -48 -23 -72 -46
-92 -57 -97 -57 -3 0 -13 -6 -21 -15 -9 -8 -22 -15 -30 -15 -8 0 -14 -5 -14
-11 0 -5 -4 -7 -10 -4 -5 3 -10 1 -10 -4 0 -21 -21 -10 -58 29 -20 22 -79 83
-129 136 -51 52 -93 99 -93 104 0 6 -7 10 -15 10 -8 0 -15 4 -15 10 0 5 -20
28 -44 52 -25 23 -42 46 -40 50 3 4 0 8 -6 8 -15 0 -41 26 -33 34 4 3 -1 6
-10 6 -9 0 -17 6 -17 13 0 6 -13 21 -29 32 -17 11 -28 21 -26 23 2 2 -29 37
-68 78 -40 41 -109 113 -154 160 -46 47 -83 87 -83 89 0 2 -27 30 -60 63 -33
34 -60 66 -60 73 0 7 -3 10 -6 6 -10 -10 -36 22 -29 34 4 6 16 9 26 6 11 -3
17 -1 13 4 -3 5 4 9 15 9 11 0 27 7 35 16 9 8 16 10 16 4 0 -7 6 -8 19 -1 10
6 21 7 25 4 3 -3 6 -2 6 4 0 10 85 38 103 35 4 -1 7 4 7 10 0 9 4 8 10 -2 6
-9 10 -10 10 -3 0 10 55 29 73 25 4 -1 7 2 7 8 0 5 7 7 15 4 8 -4 15 -1 15 5
0 6 7 8 15 5 8 -4 15 -2 15 3 0 5 6 10 13 11 6 0 23 3 37 7 14 4 31 7 38 7 6
1 12 5 12 9 0 4 8 6 18 5 9 -2 19 0 22 5 3 4 19 11 35 14 39 8 59 13 63 15 1
2 5 3 10 5 4 1 14 4 22 8 33 13 94 26 102 21 4 -3 8 -1 8 4 0 5 10 12 23 15
12 3 48 12 80 20 31 8 57 12 57 8 0 -3 4 -1 8 6 6 10 34 18 145 40 15 3 27 10
27 15 0 6 8 4 18 -3 9 -7 13 -9 9 -4 -7 8 70 32 121 37 6 1 12 4 12 7 0 3 15
7 33 9 17 1 41 4 52 6 11 3 26 5 33 5 7 1 11 5 8 9 -3 5 1 9 9 9 8 0 15 -5 15
-10 0 -5 5 -5 13 1 7 6 30 13 52 16 83 13 105 19 105 30 0 6 5 4 10 -4 5 -8
10 -10 10 -5 0 6 17 11 38 13 20 1 44 4 52 5 8 2 38 7 65 12 28 4 58 12 69 17
14 7 16 7 11 -2 -6 -9 -3 -9 13 -1 11 6 34 9 51 7 17 -2 31 1 31 5 0 5 5 9 11
9 5 0 7 -5 3 -12 -5 -7 -3 -8 7 -2 8 5 32 10 53 11 21 1 41 5 44 7 9 10 352 4
352 -6z m-3393 -402 c3 -3 14 -1 24 5 14 7 19 6 19 -2 0 -9 3 -9 14 0 10 8 16
9 21 1 3 -5 19 -10 34 -10 15 0 31 -3 35 -7 4 -4 13 -8 19 -8 19 0 89 -27 125
-47 18 -10 39 -18 47 -18 8 0 15 -4 15 -9 0 -5 8 -11 18 -14 23 -8 76 -40 80
-49 2 -5 10 -8 18 -8 8 0 14 -4 14 -9 0 -5 9 -13 20 -16 23 -7 27 -25 5 -25
-8 0 -15 -5 -15 -11 0 -5 -4 -8 -9 -5 -5 3 -34 -5 -65 -19 -31 -14 -56 -22
-56 -19 0 4 -7 1 -15 -6 -8 -6 -18 -9 -24 -6 -5 3 -11 -1 -15 -9 -3 -9 -18
-15 -36 -15 -17 0 -33 -6 -36 -13 -2 -7 -16 -14 -30 -15 -13 -1 -57 -15 -95
-32 -39 -16 -78 -30 -86 -30 -8 0 -11 -5 -7 -12 5 -7 2 -9 -8 -5 -9 3 -21 0
-27 -6 -6 -6 -11 -8 -11 -4 0 4 -15 0 -32 -10 -18 -10 -37 -18 -43 -19 -5 0
-28 -9 -50 -19 -22 -10 -44 -19 -50 -19 -5 -1 -27 -9 -49 -19 -21 -9 -42 -17
-47 -17 -5 0 -9 -5 -9 -11 0 -6 -7 -3 -16 5 -8 9 -17 38 -19 67 -2 28 -6 53
-9 57 -3 3 -1 11 5 19 7 8 7 13 2 13 -6 0 -8 12 -6 28 2 15 4 45 5 67 1 46 45
148 79 185 27 29 84 71 102 74 7 2 20 7 31 11 10 4 31 8 47 9 16 1 29 4 29 7
0 7 49 3 57 -5z m-2031 -242 c11 -8 24 -11 27 -7 4 3 7 1 7 -5 0 -7 5 -12 11
-12 6 0 29 -13 52 -30 47 -33 123 -100 113 -100 -5 0 21 -34 50 -64 6 -6 11
-15 13 -21 1 -5 11 -20 21 -32 11 -13 18 -23 15 -23 -3 0 8 -24 25 -53 16 -30
27 -57 23 -60 -3 -4 -2 -7 4 -7 10 0 26 -36 24 -52 -1 -5 4 -8 10 -8 5 0 8 -4
4 -10 -3 -5 -1 -17 4 -27 19 -36 38 -98 36 -115 -2 -10 0 -18 5 -18 4 0 11
-17 15 -37 4 -21 10 -42 13 -48 4 -5 7 -19 7 -30 0 -11 4 -26 8 -32 5 -8 4
-13 -2 -13 -6 0 -8 -6 -6 -12 6 -16 -102 -71 -117 -62 -6 4 -8 2 -5 -3 6 -9
-14 -20 -45 -27 -3 0 -10 -5 -15 -9 -11 -11 -76 -41 -85 -39 -4 1 -17 -6 -28
-16 -20 -17 -24 -18 -56 -21 -8 0 -13 -5 -10 -10 3 -5 -8 -11 -24 -14 -16 -4
-47 -18 -70 -32 -22 -14 -46 -25 -55 -25 -8 0 -15 -5 -15 -11 0 -6 -7 -8 -16
-5 -8 3 -12 2 -9 -4 3 -6 0 -10 -7 -10 -8 0 -43 -15 -80 -34 -36 -19 -69 -32
-74 -28 -4 4 -4 2 -1 -5 5 -7 -4 -14 -23 -18 -16 -4 -30 -11 -30 -16 0 -6 -4
-7 -10 -4 -5 3 -10 1 -10 -5 0 -7 -7 -10 -15 -6 -8 3 -15 2 -15 -3 0 -9 -111
-66 -122 -63 -5 1 -8 -3 -8 -9 0 -5 -4 -7 -10 -4 -5 3 -10 2 -10 -4 0 -10 -38
-27 -52 -23 -5 1 -8 -2 -8 -7 0 -5 -15 -14 -32 -22 -18 -7 -35 -15 -38 -18 -3
-3 -35 -21 -72 -40 -38 -19 -68 -39 -68 -45 0 -5 -6 -1 -14 9 -10 13 -11 25
-5 37 12 22 11 31 -2 22 -7 -4 -7 1 1 16 8 16 9 25 1 33 -7 7 -7 14 0 23 7 8
7 14 -1 19 -8 5 -8 11 1 21 9 11 8 14 -2 14 -11 0 -11 2 1 10 12 8 12 10 1 10
-11 0 -11 3 0 16 10 13 10 17 -2 25 -11 7 -11 9 0 9 10 0 11 3 2 14 -7 8 -8
17 -3 20 5 3 12 58 15 123 3 65 8 132 11 148 3 17 8 41 10 55 3 14 5 25 6 25
2 0 5 15 19 92 7 34 18 78 26 96 8 19 16 45 18 58 2 13 9 36 15 52 7 15 17 39
24 55 6 15 12 33 14 41 1 8 8 17 14 21 7 4 11 9 9 11 -5 9 15 55 30 66 9 7 12
13 8 13 -9 0 64 110 102 154 44 50 85 86 99 86 6 0 12 4 12 10 0 13 95 59 145
70 52 11 174 1 201 -16z m2690 -82 c38 -37 73 -75 77 -85 4 -10 11 -15 17 -12
6 3 13 0 16 -9 3 -8 46 -57 95 -108 49 -51 89 -96 89 -100 0 -5 7 -8 15 -8 8
0 15 -4 15 -9 0 -6 36 -46 79 -90 43 -45 77 -81 76 -81 -2 0 21 -24 51 -54 30
-29 54 -59 54 -66 0 -7 3 -11 6 -7 3 3 20 -10 37 -29 18 -20 59 -64 92 -98 33
-35 85 -90 115 -122 30 -32 58 -58 63 -56 4 1 7 -5 7 -13 0 -8 5 -15 10 -15
17 0 11 -22 -12 -41 -11 -11 -27 -19 -34 -19 -7 0 -20 -7 -28 -16 -9 -8 -16
-13 -16 -9 0 3 -13 -3 -29 -14 -15 -11 -31 -18 -35 -14 -3 3 -6 2 -6 -3 0 -6
-16 -16 -35 -23 -19 -7 -35 -17 -35 -22 0 -6 -4 -7 -10 -4 -5 3 -10 2 -10 -3
0 -5 -11 -12 -24 -14 -21 -4 -36 7 -88 65 -87 96 -88 97 -100 97 -6 0 -9 3 -6
6 3 3 -33 45 -81 94 -47 49 -131 136 -186 195 -55 59 -120 129 -145 155 -25
26 -64 68 -88 94 -24 25 -48 46 -53 46 -6 0 -8 4 -4 9 3 6 -4 15 -15 21 -11 6
-20 17 -20 25 0 8 -3 14 -8 13 -4 -2 -21 11 -37 29 -17 17 -52 55 -79 84 l-49
52 -69 -74 c-39 -41 -90 -95 -115 -120 -35 -36 -44 -52 -38 -68 3 -11 13 -21
21 -21 8 0 14 -5 14 -11 0 -6 18 -28 40 -50 22 -22 40 -44 40 -49 0 -6 7 -10
15 -10 8 0 15 -4 15 -8 0 -5 45 -55 100 -112 55 -56 100 -107 100 -112 0 -5 5
-6 10 -3 6 3 10 2 10 -4 0 -6 17 -28 38 -49 20 -21 63 -66 94 -99 31 -33 60
-58 63 -55 3 3 5 0 5 -7 0 -6 23 -34 50 -61 28 -27 50 -51 50 -54 0 -10 109
-114 114 -108 3 3 6 -1 6 -10 0 -8 11 -24 25 -36 14 -12 25 -26 25 -32 0 -11
-40 -34 -40 -23 0 4 -4 3 -8 -4 -4 -6 -43 -28 -87 -49 -44 -20 -83 -42 -86
-47 -3 -5 -10 -9 -15 -9 -5 0 -19 -4 -32 -9 -36 -14 -38 -13 -89 42 -26 28
-81 85 -120 126 -40 42 -73 78 -73 80 0 9 -62 63 -73 63 -6 0 -8 3 -5 6 4 3
-9 21 -28 41 -19 19 -34 40 -34 46 0 5 -3 8 -6 5 -5 -5 -54 38 -54 47 0 3 -20
24 -45 48 -25 24 -45 49 -45 56 0 6 -7 11 -15 11 -8 0 -15 3 -15 8 0 4 -32 40
-70 80 -39 41 -70 77 -70 82 0 4 -7 11 -16 14 -8 3 -12 10 -9 16 3 5 -2 10
-11 10 -10 0 -14 3 -11 6 6 6 -4 20 -53 80 -5 7 -6 15 -3 18 4 3 2 6 -4 6 -6
0 -16 14 -23 30 -7 17 -15 30 -19 30 -6 0 -30 53 -29 67 0 3 -5 9 -10 12 -16
10 -64 141 -58 157 3 8 10 12 16 9 5 -3 10 -1 10 4 0 6 7 11 15 11 9 0 30 8
48 17 18 9 43 16 57 14 20 -1 22 0 10 8 -12 9 -11 11 7 11 12 0 25 5 28 10 3
6 17 8 31 6 13 -3 22 -1 19 4 -3 5 12 14 32 20 21 7 44 17 51 23 6 5 12 6 12
2 0 -4 7 -2 15 5 8 7 15 9 15 5 0 -4 6 -3 13 3 18 15 99 42 109 36 4 -3 8 -1
8 5 0 6 18 16 40 22 22 7 40 15 40 19 0 4 6 7 13 8 17 1 38 7 67 19 14 6 28 9
33 6 4 -2 7 0 7 5 0 6 16 13 35 16 19 4 35 12 35 18 0 6 3 8 7 5 3 -4 13 -1
21 6 13 10 14 9 7 -2 -6 -11 -2 -10 16 2 43 31 69 22 145 -51z m-1287 -487
c20 -38 39 -71 43 -73 5 -2 8 -8 8 -13 0 -9 123 -197 155 -237 46 -59 131
-160 147 -175 10 -10 18 -22 18 -27 0 -6 7 -10 15 -10 8 0 15 -4 15 -8 0 -5
23 -32 50 -61 28 -29 50 -58 50 -64 0 -5 3 -8 6 -5 3 4 22 -12 42 -35 20 -23
67 -72 103 -109 37 -37 64 -70 61 -73 -3 -3 2 -5 12 -5 9 0 15 -4 11 -9 -3 -5
3 -12 13 -15 11 -4 24 -18 31 -32 6 -15 16 -22 23 -18 6 4 8 3 5 -3 -4 -5 5
-20 18 -31 14 -12 25 -26 25 -32 0 -5 6 -10 14 -10 7 0 22 -12 32 -27 9 -16
26 -34 36 -41 10 -7 16 -17 13 -22 -5 -8 -87 -50 -105 -54 -20 -5 -70 -32 -70
-39 0 -4 -6 -7 -12 -6 -21 2 -58 -12 -58 -23 0 -5 -4 -6 -10 -3 -5 3 -10 1
-10 -5 0 -6 -4 -8 -10 -5 -5 3 -10 2 -10 -2 0 -5 -9 -9 -19 -10 -11 -1 -42 21
-74 53 -30 30 -52 54 -50 54 2 0 -24 28 -57 61 -33 34 -60 66 -60 70 0 5 -4 9
-10 9 -9 0 -60 47 -60 55 0 2 -17 21 -37 42 -21 22 -88 92 -150 157 -62 64
-114 112 -118 106 -3 -6 -12 -7 -18 -4 -7 4 -9 4 -5 -1 4 -4 -13 -27 -37 -50
-24 -24 -41 -46 -38 -49 4 -3 -1 -6 -11 -6 -9 0 -15 -4 -11 -9 3 -5 -4 -12
-15 -16 -11 -3 -20 -10 -20 -14 0 -5 -16 -25 -35 -45 -30 -33 -33 -39 -23 -61
6 -14 17 -25 25 -25 7 0 16 -7 20 -16 3 -8 33 -42 65 -75 33 -32 56 -59 51
-60 -4 0 2 -4 15 -9 12 -5 22 -15 22 -23 0 -7 11 -20 25 -27 14 -7 23 -15 20
-18 -5 -6 56 -62 68 -62 5 0 6 -4 3 -9 -3 -5 5 -17 19 -27 13 -10 22 -21 19
-26 -3 -4 0 -8 5 -8 6 0 20 -9 31 -20 11 -11 18 -20 15 -20 -2 0 15 -18 38
-40 40 -39 41 -41 19 -46 -12 -4 -22 -10 -22 -15 0 -5 -7 -9 -17 -9 -9 0 -40
-12 -69 -26 -29 -14 -60 -27 -69 -28 -9 -1 -20 -8 -24 -15 -5 -7 -11 -12 -15
-11 -15 4 -66 -12 -66 -21 0 -6 -4 -7 -10 -4 -5 3 -10 1 -10 -4 0 -6 -11 -11
-25 -11 -14 0 -25 -5 -25 -12 0 -6 -3 -9 -6 -5 -3 3 -34 -7 -69 -23 -35 -16
-66 -26 -69 -23 -3 4 -6 1 -6 -5 0 -6 -13 -13 -30 -17 -16 -4 -30 -10 -30 -14
0 -4 -8 -7 -17 -8 -10 -1 -44 -13 -75 -27 -32 -14 -59 -25 -60 -23 0 1 -2 252
-3 557 -3 647 -6 830 -16 830 -3 0 -5 11 -3 25 1 14 -1 39 -6 55 -5 19 -5 32
2 36 6 4 5 10 -3 15 -10 6 -10 9 -2 9 9 0 10 7 3 26 -16 41 -12 72 10 79 11 3
20 11 20 17 0 6 9 8 20 5 11 -3 20 -1 20 3 0 5 14 11 30 15 17 4 28 11 24 16
-3 5 -2 9 3 7 14 -3 93 25 93 34 0 4 6 8 13 8 6 0 25 7 40 15 17 8 25 10 21 3
-4 -7 6 -2 23 10 17 12 37 22 45 22 7 0 21 7 32 15 10 8 23 13 29 12 6 -1 27
-33 46 -72z m-898 -347 c0 -66 4 -108 10 -108 3 0 4 -14 3 -30 -1 -17 1 -32 5
-34 9 -6 7 -48 -3 -64 -4 -7 -2 -12 5 -12 7 0 8 -5 3 -12 -11 -16 -11 -39 -1
-55 5 -7 4 -13 -1 -13 -13 0 -10 -33 3 -42 6 -5 5 -8 -4 -8 -11 0 -11 -3 -1
-15 7 -8 8 -15 3 -15 -11 0 -11 -29 1 -48 4 -6 3 -12 -2 -12 -5 0 -9 -7 -9
-15 0 -8 3 -15 7 -15 4 0 6 -10 4 -22 -1 -13 -3 -23 -4 -23 -1 0 -3 -10 -4
-22 -2 -13 2 -23 7 -23 5 0 4 -7 -3 -15 -10 -12 -10 -15 0 -15 10 0 10 -3 0
-15 -10 -12 -10 -15 0 -15 10 0 10 -3 0 -15 -10 -12 -10 -18 0 -30 7 -8 8 -15
3 -15 -5 0 -10 -7 -10 -15 0 -8 4 -15 8 -15 5 0 4 -11 -1 -24 -5 -15 -5 -27 3
-35 8 -8 8 -11 0 -11 -13 0 -12 -32 2 -42 6 -5 5 -8 -4 -8 -11 0 -11 -3 -1
-15 8 -10 9 -15 1 -15 -7 0 -8 -8 -1 -24 5 -13 6 -27 2 -30 -10 -10 -9 -46 1
-46 5 0 4 -7 -3 -15 -10 -12 -10 -15 0 -15 10 0 10 -3 0 -15 -10 -12 -10 -15
0 -15 10 0 10 -3 1 -14 -8 -10 -9 -16 -1 -21 6 -3 7 -12 3 -18 -11 -18 -11
-47 0 -47 5 0 4 -7 -3 -15 -10 -12 -10 -15 0 -15 10 0 10 -3 0 -15 -10 -12
-10 -15 0 -15 8 0 9 -4 4 -12 -11 -16 -11 -39 -1 -55 5 -7 4 -13 -1 -13 -13 0
-10 -33 3 -42 6 -5 5 -8 -4 -8 -11 0 -11 -3 -1 -15 7 -8 8 -15 3 -15 -11 0
-11 -29 1 -48 4 -6 3 -12 -2 -12 -5 0 -9 -7 -9 -15 0 -8 3 -15 7 -15 4 0 6
-10 4 -22 -1 -13 -3 -23 -4 -23 -1 0 -3 -10 -4 -22 -2 -13 2 -23 7 -23 19 0
-14 -28 -41 -34 -15 -4 -52 -16 -82 -28 -30 -11 -73 -27 -95 -35 -22 -8 -53
-21 -70 -28 -25 -11 -89 -33 -140 -49 -5 -2 -23 -8 -38 -14 -16 -7 -36 -12
-46 -12 -9 0 -21 -4 -26 -9 -9 -8 -330 -121 -390 -137 -35 -9 -39 -11 -69 -23
-16 -6 -36 -13 -45 -14 -9 -1 -20 -5 -26 -8 -11 -7 -62 -21 -85 -25 -8 -1 -42
-12 -74 -23 -76 -27 -76 -27 -72 9 2 17 -1 33 -6 36 -5 3 -4 11 2 19 8 10 8
15 0 20 -8 5 -8 10 0 20 8 10 8 15 0 20 -8 5 -8 10 0 20 8 10 8 15 0 20 -8 5
-8 11 1 21 9 11 8 14 -2 14 -11 0 -11 2 1 10 12 8 12 10 1 10 -11 0 -11 3 0
17 11 13 11 17 2 20 -10 4 -10 10 -2 25 9 16 8 19 -2 13 -8 -5 -10 -4 -5 4 11
18 15 61 5 61 -5 0 -4 11 1 24 6 16 5 28 -3 36 -9 10 -9 11 1 6 6 -4 12 -2 12
3 0 6 -4 11 -10 11 -6 0 -6 9 0 25 5 13 6 27 1 29 -9 6 -7 41 4 69 4 10 3 17
-4 17 -9 0 -9 5 0 21 9 17 8 20 -2 14 -8 -5 -10 -4 -5 4 11 18 15 61 5 61 -5
0 -4 11 1 24 6 16 5 28 -3 36 -9 10 -9 11 1 6 6 -4 12 -2 12 3 0 6 -4 11 -10
11 -6 0 -6 9 0 25 5 13 6 27 1 29 -9 6 -7 41 4 69 4 10 3 17 -4 17 -9 0 -9 5
0 21 9 17 8 20 -2 14 -8 -5 -10 -4 -5 4 11 18 15 61 5 61 -5 0 -4 11 1 24 6
16 5 28 -3 36 -9 10 -9 11 1 6 6 -4 12 -2 12 3 0 6 -6 11 -12 11 -9 0 -8 4 2
10 12 8 12 10 1 10 -11 0 -11 3 0 17 11 13 11 17 2 20 -7 3 -13 9 -13 14 0 6
3 8 8 6 4 -3 7 15 7 39 0 24 -4 44 -10 44 -5 0 -3 5 5 10 12 8 12 10 1 10 -11
0 -11 3 0 17 12 14 12 17 0 21 -11 4 -11 6 0 13 12 7 12 9 0 9 -11 0 -11 3 0
16 10 13 10 17 -2 25 -10 6 -11 9 -1 9 7 0 10 5 7 10 -4 6 9 17 29 25 19 8 38
19 41 25 4 6 11 8 16 5 5 -4 9 -1 9 6 0 7 3 9 6 6 4 -4 19 2 33 12 14 10 42
25 61 33 20 9 43 23 53 32 9 10 17 13 17 7 0 -6 9 -2 20 9 12 12 25 18 30 15
4 -3 10 -2 12 3 1 4 57 35 123 67 66 33 122 63 125 66 5 5 36 20 53 24 4 2 10
4 15 5 4 1 10 2 15 1 4 0 7 3 7 8 0 5 16 15 35 22 19 7 35 16 35 21 0 4 7 4
17 1 10 -4 14 -2 10 4 -4 7 11 16 37 24 25 7 42 17 40 21 -3 4 1 8 8 8 7 0 40
14 73 30 33 16 65 30 72 30 6 0 13 5 15 10 2 6 13 12 26 13 12 0 22 4 22 7 0
4 35 22 78 40 42 19 79 37 82 41 4 6 29 14 53 18 4 0 8 -14 8 -31z m2600 -599
c38 -40 69 -75 69 -80 0 -4 9 -11 20 -14 11 -3 20 -13 20 -21 0 -8 4 -14 9
-14 5 0 13 -9 16 -20 4 -11 11 -18 16 -15 5 4 9 -1 9 -9 0 -8 10 -22 22 -30
12 -9 19 -16 15 -16 -4 0 1 -10 13 -22 11 -12 20 -27 20 -34 0 -7 4 -14 8 -16
12 -4 83 -128 74 -128 -4 0 -2 -4 3 -8 15 -10 35 -49 35 -67 0 -8 5 -15 11
-15 5 0 8 -4 5 -8 -3 -5 1 -20 9 -35 7 -15 15 -37 17 -49 2 -13 6 -25 9 -28 6
-5 17 -74 18 -113 1 -10 5 -16 9 -13 10 6 5 -104 -10 -179 -10 -56 -42 -126
-60 -133 -4 -2 -8 -8 -8 -13 0 -13 -37 -48 -44 -42 -3 4 -6 2 -6 -4 0 -15 -79
-51 -135 -60 -86 -15 -232 1 -292 32 -15 8 -34 15 -41 15 -15 0 -176 84 -208
109 -12 9 -32 23 -44 31 -13 8 -32 23 -42 33 -10 9 -20 17 -23 17 -3 0 -29 22
-58 50 -29 27 -55 50 -59 50 -5 0 -8 7 -8 16 0 8 -4 12 -10 9 -5 -3 -10 1 -10
9 0 8 -9 18 -20 21 -11 3 -20 11 -20 17 0 6 -24 34 -52 62 -70 68 -188 194
-214 228 -11 15 -23 25 -27 22 -3 -3 -8 4 -12 15 -3 12 -11 19 -16 16 -5 -4
-9 -1 -9 5 0 7 -9 19 -21 29 -20 16 -19 17 43 46 35 16 69 30 77 31 8 2 17 8
22 15 4 7 20 14 34 16 15 2 34 11 42 18 8 8 26 18 41 22 15 3 30 11 35 17 5 8
10 6 17 -4 5 -8 10 -12 10 -8 0 4 14 -7 30 -25 17 -18 73 -76 124 -129 51 -54
91 -99 89 -102 -3 -2 5 -7 16 -11 12 -3 20 -9 18 -13 -2 -4 33 -45 78 -91 l82
-83 76 76 c42 42 77 79 77 83 0 3 18 23 41 44 22 21 40 41 40 44 0 3 -14 19
-31 35 -16 15 -30 33 -30 39 0 6 -7 11 -15 11 -8 0 -15 3 -15 8 0 4 -33 42
-74 84 -41 42 -72 79 -68 82 3 3 -2 6 -11 6 -9 0 -17 3 -17 8 0 4 -19 27 -42
51 -44 46 -56 71 -33 71 17 0 119 51 123 61 2 4 10 5 18 2 8 -3 14 0 14 6 0 6
8 11 18 11 10 0 27 8 38 18 11 11 27 18 37 16 9 -1 17 2 17 7 0 26 40 1 101
-62z m-4316 -881 c0 -415 3 -624 10 -620 6 3 4 -1 -2 -10 -7 -8 -10 -18 -6
-21 6 -7 -20 -11 -46 -8 -7 2 -10 -2 -7 -7 3 -5 -18 -13 -47 -17 -52 -8 -63
-10 -72 -15 -3 -1 -9 -4 -15 -5 -5 -1 -11 -3 -12 -5 -10 -7 -133 -28 -140 -24
-5 3 -8 0 -8 -6 0 -6 -4 -8 -10 -5 -5 3 -10 0 -10 -7 0 -9 -3 -9 -10 2 -5 8
-10 10 -10 4 0 -6 -6 -11 -12 -12 -89 -10 -117 -16 -113 -22 2 -3 -6 -6 -18
-5 -12 1 -26 0 -32 -3 -5 -4 -21 -7 -35 -8 -56 -5 -156 -26 -169 -37 -12 -10
-13 -9 -7 2 7 10 3 11 -15 5 -13 -4 -35 -8 -49 -8 -14 -1 -28 -5 -32 -11 -5
-6 -8 -5 -8 3 0 10 -5 10 -22 1 -13 -7 -24 -11 -26 -10 -1 2 -37 -1 -80 -5
-42 -4 -85 -7 -96 -5 -13 2 -16 -1 -10 -11 6 -10 4 -10 -9 1 -13 10 -17 10
-17 1 0 -10 -3 -10 -15 0 -12 10 -15 10 -15 0 0 -10 -3 -10 -15 0 -10 8 -15 9
-15 2 0 -6 -6 -9 -12 -7 -28 10 -89 12 -94 3 -4 -6 -10 -5 -15 3 -8 12 -11 11
-19 -1 -6 -10 -10 -11 -10 -3 0 7 -10 13 -22 12 -13 0 -36 3 -53 6 -16 3 -36
7 -42 7 -7 1 -13 5 -13 10 0 5 -4 6 -10 3 -10 -6 -72 24 -78 38 -2 4 -10 7
-17 7 -16 0 -40 73 -36 109 2 14 8 36 14 50 5 14 10 29 9 34 -1 4 3 7 9 7 5 0
8 4 4 9 -3 5 0 13 5 16 6 4 16 17 21 28 16 36 56 87 63 80 3 -4 6 -1 6 6 0 17
66 81 76 73 4 -4 4 -2 1 4 -4 7 9 26 28 43 19 17 35 36 35 42 0 7 3 9 7 6 3
-4 26 13 50 38 23 25 43 43 43 40 0 -2 14 9 32 25 17 16 35 27 40 24 4 -3 8 1
8 8 0 7 16 24 35 37 19 13 47 34 62 47 16 14 47 37 70 53 23 16 40 31 36 35
-3 3 -1 6 6 6 7 0 27 11 45 25 18 14 38 25 44 25 7 0 12 4 12 9 0 10 105 81
120 81 5 0 10 4 10 9 0 6 22 22 50 38 27 15 50 31 50 36 0 4 7 7 15 7 8 0 15
5 15 10 0 6 4 10 10 10 5 0 36 18 67 40 32 22 62 40 66 40 4 0 17 9 29 20 12
11 34 26 50 32 15 7 28 17 28 21 0 5 5 5 10 2 6 -3 10 -1 10 4 0 6 7 11 15 11
8 0 15 3 15 8 0 4 18 15 40 25 22 9 40 22 40 29 0 6 3 9 6 5 3 -3 33 12 66 34
34 21 65 39 70 39 5 0 19 9 30 20 12 11 27 19 33 17 7 -3 10 -203 10 -629z"/>
</g>
</svg>
