<?xml version="1.0" encoding="UTF-8"?><svg xmlns="http://www.w3.org/2000/svg" viewBox="0 0 49.47 37.69"><defs><style>.d{fill:#fff;}</style></defs><g id="a"/><g id="b"><g id="c"><path class="d" d="M49.47,4.35c0-2.39-1.94-4.35-4.35-4.35H4.35C1.95,0,0,1.95,0,4.35v28.99c0,2.39,1.94,4.35,4.35,4.35H45.13c2.39,0,4.35-1.94,4.35-4.35V4.35ZM2.9,4.93l13.96,13.84L2.9,32.74V4.93ZM24.83,22.59L4.96,2.9H44.53L24.83,22.59Zm-5.91-1.78l4.89,4.85c.57,.56,1.48,.56,2.05,0l4.77-4.77,13.89,13.89H4.95l13.97-13.97Zm13.76-1.97l13.89-13.89v27.79l-13.89-13.89Z"/></g></g></svg>