<?xml version="1.0" encoding="UTF-8"?><svg xmlns="http://www.w3.org/2000/svg" viewBox="0 0 82.99 83.27"><g id="a"/><g id="b"><g id="c"><path d="M62.13,83.27c-1.17-.19-2.34-.35-3.51-.57-4.53-.85-8.77-2.55-12.88-4.57-6.74-3.31-13.01-7.37-18.64-12.35C15.83,55.8,6.92,44.15,1.9,29.78,.66,26.21-.09,22.53,0,18.72c.09-3.58,1.26-6.74,3.78-9.33,2.19-2.25,4.41-4.48,6.66-6.67,1.44-1.41,3.18-2.31,5.17-2.72h2.11c2.66,.52,4.57,2.19,6.39,4.05,3.21,3.3,6.54,6.49,9.67,9.86,2.95,3.17,2.93,7.45,.03,10.67-1.99,2.21-4.15,4.27-6.27,6.36-.47,.46-.6,.78-.29,1.43,2.16,4.47,5.26,8.25,8.61,11.85,3.43,3.68,7.21,6.96,11.46,9.68,1.14,.73,2.37,1.31,3.53,1.99,.4,.23,.64,.18,.97-.15,1.8-1.84,3.62-3.66,5.46-5.47,1.08-1.07,2.25-2.05,3.71-2.56,3.19-1.13,6.01-.38,8.38,1.92,3.63,3.53,7.21,7.12,10.76,10.73,3.57,3.63,3.84,7.95,.52,11.77-2.45,2.81-5.14,5.43-7.85,8-1.89,1.8-4.3,2.67-6.89,2.98-.18,.02-.36,.1-.54,.15h-3.25Zm1.64-4.19c2.51,.05,4.82-.6,6.64-2.36,2.43-2.35,4.8-4.78,7.09-7.28,1.71-1.86,1.68-3.91-.09-5.73-3.65-3.75-7.36-7.44-11.09-11.09-1.49-1.46-3.43-1.45-5.09-.14-.38,.3-.73,.64-1.08,.99-2,1.99-3.98,3.99-5.99,5.97-1.35,1.33-2.77,1.56-4.44,.71-1.18-.6-2.36-1.21-3.5-1.89-5.36-3.22-10.01-7.3-14.21-11.92-3.55-3.9-6.77-8.04-8.93-12.9-.94-2.11-.71-3.34,.96-4.95,1.99-1.92,3.97-3.84,5.91-5.81,2.34-2.37,2.32-4.28,.02-6.68-.02-.02-.04-.04-.06-.06-3.33-3.33-6.66-6.68-10.01-9.99-.53-.52-1.15-1.03-1.82-1.33-1.93-.88-3.47-.03-4.82,1.3-2.03,1.99-4.09,3.96-6.01,6.06-.93,1.02-1.78,2.22-2.31,3.48-1.14,2.7-.83,5.54-.26,8.32,1.1,5.44,3.27,10.48,5.96,15.29,4.73,8.47,10.75,15.93,17.94,22.43,7.18,6.49,15.23,11.61,24.23,15.19,3.52,1.4,7.16,2.31,10.96,2.42Z"/></g></g></svg>